<mxfile host="app.diagrams.net" modified="2023-02-16T12:13:40.358Z" agent="5.0 (Windows NT 10.0; Win64; x64) AppleWebKit/537.36 (KHTML, like Gecko) Chrome/109.0.0.0 Safari/537.36 Edg/109.0.1518.78" version="20.7.2" etag="QlmF3oALGqG5jy9mmx3_" type="github">
  <diagram id="gkYe_86MPvl4qxg87OFg" name="Page-1">
    <mxGraphModel dx="1955" dy="1261" grid="1" gridSize="10" guides="1" tooltips="1" connect="1" arrows="1" fold="1" page="1" pageScale="1" pageWidth="827" pageHeight="1169" math="0" shadow="0">
      <root>
        <mxCell id="0" />
        <mxCell id="1" parent="0" />
        <mxCell id="4UtwzMu5CIqIvLk3-Q5I-11" value="" style="rounded=1;whiteSpace=wrap;html=1;" vertex="1" parent="1">
          <mxGeometry x="490" y="360" width="320" height="270" as="geometry" />
        </mxCell>
        <mxCell id="4UtwzMu5CIqIvLk3-Q5I-7" value="" style="rounded=1;whiteSpace=wrap;html=1;" vertex="1" parent="1">
          <mxGeometry x="90" y="360" width="320" height="270" as="geometry" />
        </mxCell>
        <mxCell id="4UtwzMu5CIqIvLk3-Q5I-1" value="kube-scheduler" style="rounded=1;whiteSpace=wrap;html=1;" vertex="1" parent="1">
          <mxGeometry x="250" y="490" width="120" height="60" as="geometry" />
        </mxCell>
        <mxCell id="4UtwzMu5CIqIvLk3-Q5I-2" value="Master&lt;br&gt;Manage, Plan, Schedule, Monitor Nodes" style="rounded=1;whiteSpace=wrap;html=1;" vertex="1" parent="1">
          <mxGeometry x="90" y="240" width="320" height="100" as="geometry" />
        </mxCell>
        <mxCell id="4UtwzMu5CIqIvLk3-Q5I-4" value="Worker Nodes&lt;br&gt;Host Application as Containers" style="rounded=1;whiteSpace=wrap;html=1;" vertex="1" parent="1">
          <mxGeometry x="490" y="250" width="320" height="80" as="geometry" />
        </mxCell>
        <mxCell id="4UtwzMu5CIqIvLk3-Q5I-5" value="kube-apiserver" style="rounded=1;whiteSpace=wrap;html=1;" vertex="1" parent="1">
          <mxGeometry x="243" y="399" width="120" height="60" as="geometry" />
        </mxCell>
        <mxCell id="4UtwzMu5CIqIvLk3-Q5I-6" value="ETCD&lt;br&gt;Cluser" style="rounded=1;whiteSpace=wrap;html=1;" vertex="1" parent="1">
          <mxGeometry x="111" y="399" width="120" height="60" as="geometry" />
        </mxCell>
        <mxCell id="4UtwzMu5CIqIvLk3-Q5I-10" value="Kube Controller&lt;br&gt;Manager" style="rounded=1;whiteSpace=wrap;html=1;" vertex="1" parent="1">
          <mxGeometry x="111" y="490" width="120" height="60" as="geometry" />
        </mxCell>
        <mxCell id="4UtwzMu5CIqIvLk3-Q5I-13" value="Container Runtime Engine&lt;br&gt;Docker, rkt, etc" style="rounded=1;whiteSpace=wrap;html=1;" vertex="1" parent="1">
          <mxGeometry x="520" y="540" width="260" height="60" as="geometry" />
        </mxCell>
        <mxCell id="4UtwzMu5CIqIvLk3-Q5I-14" value="Kube-proxy" style="rounded=1;whiteSpace=wrap;html=1;" vertex="1" parent="1">
          <mxGeometry x="520" y="470" width="120" height="60" as="geometry" />
        </mxCell>
        <mxCell id="4UtwzMu5CIqIvLk3-Q5I-15" value="Kubelt" style="rounded=1;whiteSpace=wrap;html=1;" vertex="1" parent="1">
          <mxGeometry x="520" y="399" width="120" height="60" as="geometry" />
        </mxCell>
      </root>
    </mxGraphModel>
  </diagram>
</mxfile>
